<svg id="Layer_1" data-name="Layer 1" xmlns="http://www.w3.org/2000/svg" width="115" height="107.6" viewBox="0 0 115 107.6">
  <g>
    <path d="M6.5,52.77c.28-1,.51-2,.85-3a13.82,13.82,0,0,1,4.17-6.14A1.73,1.73,0,0,0,12.18,42a23.33,23.33,0,0,1,6.44-18.59,23.28,23.28,0,0,1,20-7.48,20.64,20.64,0,0,1,4.06.77,2.07,2.07,0,0,0,2.2-.44A26.59,26.59,0,0,1,62.21,10.2a26.69,26.69,0,0,1,20.07,8.74A40.21,40.21,0,0,1,87,25.71,2.09,2.09,0,0,0,89.22,27a17.89,17.89,0,0,1,14.59,6.09,16.78,16.78,0,0,1,3.57,6,1.2,1.2,0,0,0,1.19.93A14.8,14.8,0,0,1,121.3,56.84c-1.38,7.78-7.3,12.73-15.24,12.74q-26,0-52.08,0a2.21,2.21,0,0,0-1.9.87,18.44,18.44,0,0,1-28,.17,2.66,2.66,0,0,0-2.26-1C14,69.57,8.15,64.67,6.69,57a2.09,2.09,0,0,0-.19-.4ZM85.25,31.19c-.16-.42-.28-.77-.41-1.11a24.07,24.07,0,0,0-39.52-9.29,1.16,1.16,0,0,1-1.46.26,20.8,20.8,0,0,0-11.44-1.18A20.25,20.25,0,0,0,16,42.46a3.23,3.23,0,0,1-1.49,3.6,10.18,10.18,0,0,0-4.1,10.49A10.25,10.25,0,0,0,18,65.18c2,.58,4.2.42,6.3.66a2,2,0,0,1,1.28.6c3.35,4.66,7.8,7.1,13.6,6.76A13.7,13.7,0,0,0,50.4,66.67,1.62,1.62,0,0,1,52,65.8q14.31,0,28.63,0c8.83,0,17.66.05,26.49,0,6.85-.06,12.15-7.2,10.28-13.7a11.22,11.22,0,0,0-11.06-8.47h-1.61C103.23,35.36,95.92,28.66,85.25,31.19Z" transform="translate(-6.5 -10.2)"/>
    <path d="M34.16,79.53c2.93,3.62,5.72,6.8,7.29,10.79,1.16,3-.91,6.91-4.21,8.33A7.36,7.36,0,0,1,27,91.9,6.76,6.76,0,0,1,28,88.55C29.93,85.56,32,82.68,34.16,79.53Zm.39,6-.5,0c-1,1.75-2.18,3.46-3.12,5.27a3.22,3.22,0,0,0,1.2,4,3.68,3.68,0,0,0,4.37,0,3.19,3.19,0,0,0,1.22-4C36.77,89,35.62,87.26,34.55,85.48Z" transform="translate(-6.5 -10.2)"/>
    <path d="M63.83,79.51c2.89,3.58,5.61,6.72,7.22,10.6,1.25,3-.66,7-4,8.49A7.38,7.38,0,0,1,56.63,92a6.67,6.67,0,0,1,1-3.27C59.54,85.7,61.63,82.75,63.83,79.51Zm.41,6-.44,0c-1,1.64-2.09,3.23-3,4.91a3.24,3.24,0,0,0,.95,4.29,3.69,3.69,0,0,0,4.56,0,3.29,3.29,0,0,0,.93-4.3C66.3,88.73,65.24,87.16,64.24,85.54Z" transform="translate(-6.5 -10.2)"/>
    <path d="M78.87,98.27a64.5,64.5,0,0,1,6.74,9.61c1.77,3.31-.3,8.79-5.29,9.75a7.33,7.33,0,0,1-8.81-6.34,4.92,4.92,0,0,1,.23-2.41C73.33,104.86,76.12,101.64,78.87,98.27Zm.21,5.78-.5,0c-1,1.71-2.16,3.38-3.1,5.14a3.24,3.24,0,0,0,1,4,3.65,3.65,0,0,0,4.47.13,3.25,3.25,0,0,0,1.21-4C81.26,107.5,80.13,105.79,79.08,104.05Z" transform="translate(-6.5 -10.2)"/>
    <path d="M49.47,98.15c2.16,3.25,4.29,6.34,6.3,9.52,2.29,3.64-.38,8.83-4.87,9.92a7.43,7.43,0,0,1-9.13-7.15,5.37,5.37,0,0,1,.34-1.73A39.15,39.15,0,0,1,49.47,98.15Zm0,5.88h-.52c-1.08,1.85-2.26,3.64-3.21,5.55-.61,1.21.1,2.86,1.29,3.74a3.63,3.63,0,0,0,4.28.06c1.25-.88,2-2.58,1.38-3.82C51.7,107.66,50.51,105.87,49.43,104Z" transform="translate(-6.5 -10.2)"/>
    <path d="M93.68,79.72a64.39,64.39,0,0,1,6.69,9.47c2.12,3.89-.79,9.59-6,10a7.4,7.4,0,0,1-8.06-7.06,4.89,4.89,0,0,1,.35-2C88.21,86.26,91,83.11,93.68,79.72Zm0,5.45c-1.23,2-2.36,3.65-3.31,5.4a3.23,3.23,0,0,0,1.08,4.17,3.74,3.74,0,0,0,4.48,0,3.28,3.28,0,0,0,1-4.19C96,88.8,94.92,87.16,93.69,85.17Z" transform="translate(-6.5 -10.2)"/>
    <path d="M23.15,39.88H19.66C19,32.82,25.51,23.15,36.11,23.22v3.6A13.33,13.33,0,0,0,23.15,39.88Z" transform="translate(-6.5 -10.2)"/>
  </g>
</svg>
